<svg width="32" height="32" viewBox="0 0 32 32" fill="none" xmlns="http://www.w3.org/2000/svg">
<path d="M10.5915 26.0657C12.4945 27.0673 14.2973 27.5681 16 27.5681C17.7027 27.5681 19.4804 27.0673 21.3333 26.0657C23.2363 25.0642 24.6635 23.8372 25.615 22.385C25.5649 20.9828 24.4382 19.8059 22.2347 18.8545C20.0313 17.903 17.9531 17.4272 16 17.4272C14.0469 17.4272 11.9687 17.903 9.76526 18.8545C7.56182 19.7559 6.43506 20.9327 6.38498 22.385C7.33646 23.8372 8.73865 25.0642 10.5915 26.0657ZM19.3803 6.23474C18.4288 5.28326 17.302 4.80751 16 4.80751C14.698 4.80751 13.5712 5.28326 12.6197 6.23474C11.6682 7.18623 11.1925 8.31299 11.1925 9.61502C11.1925 10.9171 11.6682 12.0438 12.6197 12.9953C13.5712 13.9468 14.698 14.4225 16 14.4225C17.302 14.4225 18.4288 13.9468 19.3803 12.9953C20.3318 12.0438 20.8075 10.9171 20.8075 9.61502C20.8075 8.31299 20.3318 7.18623 19.3803 6.23474ZM4.65728 4.73239C7.81221 1.57747 11.5931 0 16 0C20.4069 0 24.1628 1.57747 27.2676 4.73239C30.4225 7.83725 32 11.5931 32 16C32 20.4069 30.4225 24.1878 27.2676 27.3427C24.1628 30.4476 20.4069 32 16 32C11.5931 32 7.81221 30.4476 4.65728 27.3427C1.55243 24.1878 0 20.4069 0 16C0 11.5931 1.55243 7.83725 4.65728 4.73239Z" fill="#434343"/>
</svg>
