<svg width="32" height="32" viewBox="0 0 32 32" fill="none" xmlns="http://www.w3.org/2000/svg">
<path d="M2.55621 1.91667L32 27.9167L29.4438 30.1667L24.9941 26.1667C23.7949 27.1111 22.1538 27.7778 20.071 28.1667V32H14.0118V28.1667C11.929 27.7778 10.1933 27 8.80473 25.8333C7.41617 24.6667 6.65878 23.1667 6.53255 21.3333H10.9823C11.2347 23.8333 13.2544 25.0833 17.0414 25.0833C19.3767 25.0833 20.9862 24.5278 21.8698 23.4167L14.7692 17.25C9.53057 15.8611 6.91124 13.5278 6.91124 10.25L0 4.16667L2.55621 1.91667ZM17.0414 6.91667C15.8422 6.91667 14.8008 7.08333 13.9172 7.41667L10.9823 4.83333C11.8659 4.44444 12.8757 4.11111 14.0118 3.83333V0H20.071V3.91667C22.0907 4.36111 23.6371 5.19444 24.7101 6.41667C25.8462 7.63889 26.4458 9.05555 26.5089 10.6667H22.0592C21.9329 8.16667 20.2604 6.91667 17.0414 6.91667Z" fill="#434343"/>
</svg>
