<svg width="32" height="31" viewBox="0 0 32 31" fill="none" xmlns="http://www.w3.org/2000/svg">
<path d="M28.528 8.8L24.896 5.168C25.008 4.496 25.184 3.872 25.408 3.328C25.536 3.04 25.6 2.736 25.6 2.4C25.6 1.072 24.528 0 23.2 0C20.576 0 18.256 1.264 16.8 3.2H8.8C3.936 3.2 0 7.136 0 12C0 16.864 4 30.4 4 30.4H12.8V27.2H16V30.4H24.8L27.488 21.456L32 19.952V8.8H28.528ZM17.6 11.2H9.6V8H17.6V11.2ZM22.4 14.4C21.52 14.4 20.8 13.68 20.8 12.8C20.8 11.92 21.52 11.2 22.4 11.2C23.28 11.2 24 11.92 24 12.8C24 13.68 23.28 14.4 22.4 14.4Z" fill="#434343"/>
</svg>
