<svg width="32" height="32" viewBox="0 0 32 32" fill="none" xmlns="http://www.w3.org/2000/svg">
<path d="M6.9108 25.0892C9.46479 27.5931 12.4945 28.8451 16 28.8451C19.5055 28.8451 22.5102 27.5931 25.0141 25.0892C27.5681 22.5352 28.8451 19.5055 28.8451 16C28.8451 14.8983 28.6698 13.6964 28.3192 12.3944C27.2175 12.6448 25.9906 12.77 24.6385 12.77C22.3349 12.77 19.9061 12.1189 17.3521 10.8169C14.8482 9.46479 12.9452 7.86228 11.6432 6.00939C9.99061 10.0156 7.18623 12.8951 3.23005 14.6479C3.17997 14.9484 3.15493 15.3991 3.15493 16C3.15493 19.5055 4.40689 22.5352 6.9108 25.0892ZM4.65728 4.73239C7.81221 1.57746 11.5931 0 16 0C20.4069 0 24.1628 1.57746 27.2676 4.73239C30.4225 7.83725 32 11.5931 32 16C32 20.4069 30.4225 24.1878 27.2676 27.3427C24.1628 30.4476 20.4069 32 16 32C11.5931 32 7.81221 30.4476 4.65728 27.3427C1.55243 24.1878 0 20.4069 0 16C0 11.5931 1.55243 7.83725 4.65728 4.73239ZM19.3803 16.2254C19.7809 15.8247 20.2567 15.6244 20.8075 15.6244C21.3584 15.6244 21.8341 15.8247 22.2347 16.2254C22.6354 16.5759 22.8357 17.0266 22.8357 17.5775C22.8357 18.1283 22.6354 18.6041 22.2347 19.0047C21.8341 19.4053 21.3584 19.6056 20.8075 19.6056C20.2567 19.6056 19.7809 19.4053 19.3803 19.0047C18.9797 18.6041 18.7793 18.1283 18.7793 17.5775C18.7793 17.0266 18.9797 16.5759 19.3803 16.2254ZM9.76526 16.2254C10.1659 15.8247 10.6416 15.6244 11.1925 15.6244C11.7433 15.6244 12.2191 15.8247 12.6197 16.2254C13.0203 16.5759 13.2207 17.0266 13.2207 17.5775C13.2207 18.1283 13.0203 18.6041 12.6197 19.0047C12.2191 19.4053 11.7433 19.6056 11.1925 19.6056C10.6416 19.6056 10.1659 19.4053 9.76526 19.0047C9.36463 18.6041 9.16432 18.1283 9.16432 17.5775C9.16432 17.0266 9.36463 16.5759 9.76526 16.2254Z" fill="#343434"/>
</svg>
