<?xml version="1.0" standalone="no"?>
<!DOCTYPE svg PUBLIC "-//W3C//DTD SVG 20010904//EN"
 "http://www.w3.org/TR/2001/REC-SVG-20010904/DTD/svg10.dtd">
<svg version="1.0" xmlns="http://www.w3.org/2000/svg"
 width="165.000000pt" height="165.000000pt" viewBox="0 0 165.000000 165.000000"
 preserveAspectRatio="xMidYMid meet">
<metadata>
Created by potrace 1.11, written by Peter Selinger 2001-2013
</metadata>
<g transform="translate(0.000000,165.000000) scale(0.100000,-0.100000)"
fill="#000000" stroke="none">
<path d="M640 1600 c-589 -5 -596 -6 -619 -48 -13 -25 -23 -871 -14 -1192 l8
-265 35 -18 c32 -17 57 -18 280 -14 135 2 286 0 335 -6 67 -7 125 -6 230 4 81
8 259 14 423 14 l284 0 22 25 21 26 -1 514 c-2 290 -7 554 -13 605 -6 50 -11
142 -11 205 0 63 -4 121 -9 129 -14 22 -87 30 -251 28 -85 -1 -409 -4 -720 -7z
m-255 -621 c51 -14 102 -65 110 -112 5 -27 12 -37 26 -37 17 0 19 8 19 80 l0
80 135 0 135 0 0 -35 0 -35 -80 0 -80 0 0 -30 c0 -29 2 -30 43 -30 24 0 48 -5
53 -10 6 -6 30 -7 57 -4 l47 7 0 69 0 70 118 -4 c104 -3 121 -6 150 -27 30
-21 33 -28 30 -62 l-4 -39 63 0 63 0 0 30 c0 29 -2 30 -45 30 -45 0 -45 0 -45
35 l0 35 150 0 150 0 0 -35 0 -35 -50 0 c-49 0 -50 -1 -50 -30 0 -30 0 -30 59
-30 66 0 94 -18 71 -45 -8 -10 -31 -15 -71 -15 l-59 0 0 -75 0 -75 -55 0 -55
0 0 78 0 77 -63 0 c-50 0 -61 -3 -58 -15 20 -74 3 -113 -56 -129 -21 -6 -84
-11 -140 -11 l-103 0 0 70 0 70 -32 0 c-18 0 -63 -3 -100 -7 -67 -6 -68 -6
-68 -34 l0 -29 80 0 80 0 0 -35 0 -35 -135 0 -135 0 0 65 c0 59 -2 65 -20 65
-13 0 -24 -10 -31 -27 -28 -73 -89 -102 -216 -103 l-93 0 0 70 c0 75 2 72 -64
82 -10 2 -24 11 -30 21 -15 25 6 36 55 30 l39 -6 0 72 0 71 83 0 c45 0 100 -5
122 -11z"/>
<path d="M290 876 l0 -46 51 0 c51 0 51 0 44 28 -9 36 -24 50 -63 58 l-32 7 0
-47z"/>
<path d="M960 890 c0 -30 2 -31 38 -28 32 3 37 6 37 28 0 22 -5 25 -37 28 -36
3 -38 2 -38 -28z"/>
<path d="M967 783 c-4 -3 -7 -19 -7 -35 0 -27 2 -29 36 -26 47 4 68 32 40 54
-21 15 -58 19 -69 7z"/>
<path d="M290 750 c0 -37 24 -40 64 -9 37 29 32 39 -19 39 -43 0 -45 -1 -45
-30z"/>
</g>
</svg>
