<svg width="168" height="54" viewBox="0 0 168 54" fill="none" xmlns="http://www.w3.org/2000/svg">
<path d="M0.23786 40.7687C-0.308242 28.8592 0.256949 17.0007 0.256949 5.0793C0.257529 3.21113 0.0368677 1.95636 1.79588 0.960005C3.55489 -0.0363503 7.00604 0.391454 9.2087 0.310586C13.3004 0.160365 13.7333 0.310618 17.4378 0.310618H32.5569C39.0027 0.310618 43.2227 0.0269917 47.028 0.0271126C48.6786 0.0269898 52.8966 -0.200265 55.5099 0.663246C56.6101 3.02654 55.9228 5.06073 55.9228 6.10116C55.9228 9.39155 56.5188 12.9726 56.6101 16.3198C56.7232 20.4713 56.9537 24.7402 56.9537 28.847C56.9537 32.0233 56.6101 35.2818 56.6101 38.4852C56.6101 42.8036 56.9537 45.9166 56.9537 50.2897C56.9537 54.4804 51.4471 53.1849 48.5542 53.1849H38.1974C33.0544 53.1849 28.0611 54.5245 23.1074 53.769C18.9263 53.1314 14.9144 53.6975 10.7182 53.7879C8.29064 53.8402 3.94634 54.0298 1.63298 53.1849C0.0715785 52.6147 0.23786 51.0724 0.237177 48.8057C0.236323 45.491 0.375095 43.7616 0.23786 40.7687Z" fill="#FF4630"/>
<path d="M68.2918 21.9583C69.1831 21.9583 69.9884 22.1179 70.7078 22.4372C71.4273 22.7459 72.0178 23.177 72.4796 23.7305C72.9413 24.284 73.2419 24.9173 73.3815 25.6305C73.4137 25.7582 73.4298 25.8593 73.4298 25.9338C73.4298 26.0296 73.4084 26.0935 73.3654 26.1254C73.3332 26.1574 73.2688 26.1786 73.1721 26.1893L70.3535 26.3649C70.2461 26.3649 70.1763 26.349 70.1441 26.317C70.1119 26.2744 70.0797 26.1893 70.0475 26.0616C69.9508 25.5506 69.7736 25.1515 69.5159 24.8641C69.2582 24.5661 68.8824 24.417 68.3885 24.417C67.7549 24.417 67.2664 24.6938 66.9228 25.2473C66.5792 25.8008 66.4074 26.7002 66.4074 27.9456C66.4074 29.2335 66.5631 30.1489 66.8744 30.6918C67.1966 31.2346 67.6959 31.506 68.3724 31.506C68.9415 31.506 69.4247 31.3623 69.822 31.0749C70.23 30.7875 70.5682 30.3086 70.8367 29.638C70.8689 29.5422 70.9602 29.4943 71.1105 29.4943C71.1857 29.4943 71.2447 29.4996 71.2877 29.5103L73.301 29.9094C73.4621 29.9626 73.5426 30.085 73.5426 30.2766C73.5426 30.5747 73.3547 31.0377 72.9789 31.6657C72.6138 32.283 72.0339 32.8472 71.2393 33.3581C70.4555 33.869 69.4622 34.1245 68.2596 34.1245C67.1214 34.1245 66.1228 33.8584 65.2638 33.3262C64.4048 32.7833 63.739 32.0436 63.2666 31.1069C62.8048 30.1595 62.574 29.0845 62.574 27.8817C62.574 26.6896 62.8048 25.6464 63.2666 24.7523C63.739 23.8582 64.4048 23.1717 65.2638 22.6927C66.1335 22.2031 67.1429 21.9583 68.2918 21.9583Z" fill="#2B2B2B"/>
<path d="M80.264 34.1245C79.0936 34.1245 78.0681 33.8797 77.1876 33.39C76.3178 32.8898 75.6467 32.1872 75.1743 31.2825C74.7018 30.3671 74.4656 29.2974 74.4656 28.0733C74.4656 26.8492 74.7018 25.7795 75.1743 24.8641C75.6575 23.9381 76.334 23.2249 77.2037 22.7246C78.0842 22.2137 79.1043 21.9583 80.264 21.9583C81.4129 21.9583 82.4223 22.2137 83.292 22.7246C84.1618 23.2249 84.8329 23.9381 85.3053 24.8641C85.7885 25.7795 86.0301 26.8492 86.0301 28.0733C86.0301 29.2867 85.7939 30.3511 85.3215 31.2665C84.849 32.1819 84.1779 32.8898 83.3081 33.39C82.4384 33.8797 81.4236 34.1245 80.264 34.1245ZM80.264 31.6338C80.7364 31.6338 81.1123 31.522 81.3914 31.2985C81.6706 31.0643 81.8746 30.6918 82.0035 30.1808C82.1323 29.6699 82.1968 28.9834 82.1968 28.1212C82.1968 26.8013 82.0464 25.854 81.7458 25.2792C81.4451 24.7044 80.9512 24.417 80.264 24.417C79.566 24.417 79.0613 24.7044 78.7499 25.2792C78.4493 25.854 78.299 26.8013 78.299 28.1212C78.299 28.9834 78.3634 29.6699 78.4922 30.1808C78.6211 30.6918 78.8251 31.0643 79.1043 31.2985C79.3942 31.522 79.7808 31.6338 80.264 31.6338Z" fill="#2B2B2B"/>
<path d="M87.3714 22.4851C87.3714 22.3681 87.3982 22.2776 87.4519 22.2137C87.5056 22.1498 87.5808 22.1179 87.6774 22.1179H90.7377C90.931 22.1179 91.0276 22.2297 91.0276 22.4532V31.1228C91.0276 31.208 91.0383 31.2665 91.0598 31.2985C91.092 31.3304 91.1457 31.3464 91.2209 31.3464H96.069C96.316 31.3464 96.4394 31.4475 96.4394 31.6497V33.6136C96.4394 33.72 96.4019 33.8052 96.3267 33.869C96.2623 33.9329 96.1656 33.9648 96.0368 33.9648H87.8063C87.6452 33.9648 87.5325 33.9329 87.468 33.869C87.4036 33.8052 87.3714 33.704 87.3714 33.5657V22.4851Z" fill="#2B2B2B"/>
<path d="M97.7212 22.4851C97.7212 22.3681 97.748 22.2776 97.8017 22.2137C97.8554 22.1498 97.9306 22.1179 98.0272 22.1179H101.087C101.281 22.1179 101.377 22.2297 101.377 22.4532V31.1228C101.377 31.208 101.388 31.2665 101.41 31.2985C101.442 31.3304 101.495 31.3464 101.571 31.3464H106.419C106.666 31.3464 106.789 31.4475 106.789 31.6497V33.6136C106.789 33.72 106.752 33.8052 106.676 33.869C106.612 33.9329 106.515 33.9648 106.387 33.9648H98.1561C97.995 33.9648 97.8822 33.9329 97.8178 33.869C97.7534 33.8052 97.7212 33.704 97.7212 33.5657V22.4851Z" fill="#2B2B2B"/>
<path d="M108.071 22.4851C108.071 22.2403 108.173 22.1179 108.377 22.1179H117.075C117.268 22.1179 117.364 22.2297 117.364 22.4532L117.348 24.3053C117.348 24.5927 117.209 24.7364 116.93 24.7364H112.098C111.851 24.7364 111.727 24.8375 111.727 25.0397V26.3968C111.727 26.5033 111.754 26.5884 111.808 26.6523C111.861 26.7055 111.931 26.7321 112.017 26.7321H114.916C115.142 26.7321 115.255 26.8386 115.255 27.0515V29.0313C115.255 29.2122 115.158 29.3027 114.965 29.3027H111.985C111.91 29.3027 111.845 29.324 111.792 29.3666C111.749 29.4091 111.727 29.4624 111.727 29.5262V31.1228C111.727 31.208 111.738 31.2665 111.759 31.2985C111.792 31.3304 111.845 31.3464 111.92 31.3464H117.155C117.391 31.3464 117.509 31.4475 117.509 31.6497V33.6136C117.509 33.72 117.477 33.8052 117.413 33.869C117.348 33.9329 117.252 33.9648 117.123 33.9648H108.506C108.345 33.9648 108.232 33.9329 108.168 33.869C108.103 33.8052 108.071 33.704 108.071 33.5657V22.4851Z" fill="#2B2B2B"/>
<path d="M123.281 21.9583C124.172 21.9583 124.977 22.1179 125.697 22.4372C126.416 22.7459 127.007 23.177 127.469 23.7305C127.93 24.284 128.231 24.9173 128.371 25.6305C128.403 25.7582 128.419 25.8593 128.419 25.9338C128.419 26.0296 128.397 26.0935 128.354 26.1254C128.322 26.1574 128.258 26.1786 128.161 26.1893L125.343 26.3649C125.235 26.3649 125.165 26.349 125.133 26.317C125.101 26.2744 125.069 26.1893 125.037 26.0616C124.94 25.5506 124.763 25.1515 124.505 24.8641C124.247 24.5661 123.871 24.417 123.378 24.417C122.744 24.417 122.255 24.6938 121.912 25.2473C121.568 25.8008 121.396 26.7002 121.396 27.9456C121.396 29.2335 121.552 30.1489 121.864 30.6918C122.186 31.2346 122.685 31.506 123.361 31.506C123.931 31.506 124.414 31.3623 124.811 31.0749C125.219 30.7875 125.557 30.3086 125.826 29.638C125.858 29.5422 125.949 29.4943 126.1 29.4943C126.175 29.4943 126.234 29.4996 126.277 29.5103L128.29 29.9094C128.451 29.9626 128.532 30.085 128.532 30.2766C128.532 30.5747 128.344 31.0377 127.968 31.6657C127.603 32.283 127.023 32.8472 126.228 33.3581C125.445 33.869 124.451 34.1245 123.249 34.1245C122.11 34.1245 121.112 33.8584 120.253 33.3262C119.394 32.7833 118.728 32.0436 118.256 31.1069C117.794 30.1595 117.563 29.0845 117.563 27.8817C117.563 26.6896 117.794 25.6464 118.256 24.7523C118.728 23.8582 119.394 23.1717 120.253 22.6927C121.123 22.2031 122.132 21.9583 123.281 21.9583Z" fill="#2B2B2B"/>
<path d="M129.406 22.4851C129.406 22.3787 129.439 22.2935 129.503 22.2297C129.578 22.1552 129.68 22.1179 129.809 22.1179H139.441C139.57 22.1179 139.666 22.1552 139.731 22.2297C139.806 22.2935 139.843 22.3787 139.843 22.4851V24.3851C139.843 24.5873 139.725 24.6885 139.489 24.6885H136.638C136.509 24.6885 136.445 24.7417 136.445 24.8481V33.6136C136.445 33.7306 136.418 33.8211 136.364 33.885C136.311 33.9382 136.236 33.9648 136.139 33.9648H133.079C132.885 33.9648 132.789 33.8584 132.789 33.6455V24.912C132.789 24.763 132.73 24.6885 132.612 24.6885H129.777C129.53 24.6885 129.406 24.5873 129.406 24.3851V22.4851Z" fill="#2B2B2B"/>
<path d="M144.5 22.1179C144.693 22.1179 144.79 22.2297 144.79 22.4532V33.5018C144.79 33.6721 144.747 33.7945 144.661 33.869C144.575 33.9329 144.441 33.9648 144.258 33.9648H141.568C141.407 33.9648 141.295 33.9329 141.23 33.869C141.166 33.8052 141.134 33.704 141.134 33.5657V22.4851C141.134 22.3681 141.16 22.2776 141.214 22.2137C141.268 22.1498 141.343 22.1179 141.44 22.1179H144.5Z" fill="#2B2B2B"/>
<path d="M157.016 22.1179C157.112 22.1179 157.187 22.1498 157.241 22.2137C157.306 22.2669 157.338 22.3414 157.338 22.4372C157.338 22.5011 157.332 22.549 157.322 22.5809L153.585 33.5657C153.51 33.8318 153.311 33.9648 152.989 33.9648H150.38C150.058 33.9648 149.859 33.8318 149.784 33.5657L146.047 22.5809C146.026 22.5171 146.015 22.4692 146.015 22.4372C146.015 22.3414 146.047 22.2669 146.111 22.2137C146.176 22.1498 146.256 22.1179 146.353 22.1179H149.462C149.666 22.1179 149.8 22.2297 149.864 22.4532L152.023 29.4624C152.044 29.5369 152.071 29.5741 152.103 29.5741C152.125 29.5741 152.151 29.5315 152.184 29.4464L154.197 22.4532C154.218 22.3468 154.267 22.2669 154.342 22.2137C154.428 22.1498 154.519 22.1179 154.616 22.1179H157.016Z" fill="#2B2B2B"/>
<path d="M158.561 22.4851C158.561 22.2403 158.663 22.1179 158.868 22.1179H167.565C167.758 22.1179 167.855 22.2297 167.855 22.4532L167.839 24.3053C167.839 24.5927 167.699 24.7364 167.42 24.7364H162.588C162.341 24.7364 162.218 24.8375 162.218 25.0397V26.3968C162.218 26.5033 162.245 26.5884 162.298 26.6523C162.352 26.7055 162.422 26.7321 162.508 26.7321H165.407C165.632 26.7321 165.745 26.8386 165.745 27.0515V29.0313C165.745 29.2122 165.648 29.3027 165.455 29.3027H162.475C162.4 29.3027 162.336 29.324 162.282 29.3666C162.239 29.4091 162.218 29.4624 162.218 29.5262V31.1228C162.218 31.208 162.228 31.2665 162.25 31.2985C162.282 31.3304 162.336 31.3464 162.411 31.3464H167.646C167.882 31.3464 168 31.4475 168 31.6497V33.6136C168 33.72 167.968 33.8052 167.903 33.869C167.839 33.9329 167.742 33.9648 167.613 33.9648H158.996C158.835 33.9648 158.723 33.9329 158.658 33.869C158.594 33.8052 158.561 33.704 158.561 33.5657V22.4851Z" fill="#2B2B2B"/>
<path fill-rule="evenodd" clip-rule="evenodd" d="M10.9244 21.4395C10.613 21.4289 9.81838 21.4236 8.54063 21.4236H6.64C6.47896 21.4236 6.36613 21.4555 6.30169 21.5194C6.23724 21.5726 6.2051 21.6737 6.2051 21.8227V26.503C5.53708 26.4068 4.73579 26.2884 3.74667 26.1415C3.26859 26.0706 2.82282 26.3972 2.75123 26.8712C2.67963 27.3451 3.00918 27.7869 3.48726 27.8579C4.59699 28.0226 5.47783 28.1529 6.2051 28.2567V32.7915C6.2051 32.9618 6.24276 33.0842 6.31792 33.1587C6.39308 33.2332 6.5111 33.2705 6.67214 33.2705H10.9083C12.2826 33.2705 13.4477 33.0203 14.4034 32.52C15.3591 32.0092 16.0784 31.3066 16.5617 30.4125C16.8375 29.9021 17.0347 29.3465 17.1531 28.7459C17.637 28.7113 18.1298 28.6787 18.6311 28.6477V32.8713C18.6311 33.0097 18.6633 33.1109 18.7277 33.1747C18.7922 33.2386 18.905 33.2705 19.066 33.2705H27.683C27.8119 33.2705 27.9085 33.2386 27.973 33.1747C28.0374 33.1109 28.0695 33.0257 28.0695 32.9192V30.9554C28.0695 30.7531 27.9515 30.6521 27.7153 30.6521H22.4806C22.4055 30.6521 22.3517 30.6361 22.3196 30.6041C22.298 30.5722 22.2873 30.5137 22.2873 30.4285V28.8319C22.2873 28.768 22.3089 28.7148 22.3517 28.6723C22.4055 28.6296 22.4699 28.6084 22.5451 28.6084H25.5248C25.7181 28.6084 25.8147 28.5179 25.8147 28.3369V28.3099C27.0071 28.2655 28.2176 28.2235 29.4371 28.1819V32.9192C29.4371 33.015 29.4692 33.1002 29.5337 33.1747C29.6088 33.2386 29.7001 33.2705 29.8075 33.2705H34.8973C36.6367 33.2705 37.9252 33.0097 38.7628 32.4882C39.611 31.9559 40.0352 31.1417 40.0352 30.0453C40.0352 29.3534 39.8527 28.7893 39.4876 28.3529C39.3337 28.1689 39.1349 27.9953 38.8912 27.8321C40.4639 27.7932 42.2282 27.8102 44.0253 27.8372V32.9511C44.0253 33.164 44.1219 33.2705 44.3152 33.2705H47.3754C47.472 33.2705 47.5472 33.2439 47.6009 33.1907C47.6546 33.1268 47.6814 33.0364 47.6814 32.9192V27.8913C49.0809 27.906 50.4238 27.9061 51.6156 27.8672C52.0988 27.8514 52.4776 27.4503 52.4616 26.9713C52.4457 26.4923 52.0411 26.1168 51.5578 26.1327C50.3918 26.1707 49.0726 26.1704 47.6814 26.1557V24.1538C47.6814 24.0474 47.7459 23.9941 47.8748 23.9941H50.7255C50.9619 23.9941 51.0799 23.893 51.0799 23.6908V21.7908C51.0799 21.6844 51.0424 21.5992 50.9673 21.5353C50.9028 21.4608 50.8061 21.4236 50.6773 21.4236H41.0456C40.9167 21.4236 40.8146 21.4608 40.7394 21.5353C40.6751 21.5992 40.6428 21.6844 40.6428 21.7908V23.6908C40.6428 23.893 40.7664 23.9941 41.0133 23.9941H43.848C43.9662 23.9941 44.0253 24.0686 44.0253 24.2177V26.1016C42.3657 26.0767 40.7068 26.06 39.1917 26.0896C39.2224 26.0565 39.2511 26.0232 39.2782 25.9899C39.5896 25.5961 39.7453 25.1171 39.7453 24.5529C39.7453 23.5205 39.3104 22.7435 38.4406 22.2219C37.5816 21.6897 36.3146 21.4236 34.6395 21.4236H29.8397C29.7216 21.4236 29.6249 21.4661 29.5497 21.5513C29.4746 21.6259 29.4371 21.7216 29.4371 21.8387V26.4451C28.2202 26.4868 27.0093 26.5287 25.8147 26.5733V26.3571C25.8147 26.1443 25.7019 26.0378 25.4764 26.0378H22.5772C22.4913 26.0378 22.4215 26.0112 22.3678 25.958C22.3142 25.8941 22.2873 25.809 22.2873 25.7025V24.3454C22.2873 24.1431 22.4108 24.042 22.6577 24.042H27.4898C27.7689 24.042 27.9085 23.8983 27.9085 23.611L27.9246 21.7589C27.9246 21.5353 27.828 21.4236 27.6346 21.4236H18.9371C18.7331 21.4236 18.6311 21.546 18.6311 21.7908V26.9091C18.174 26.9371 17.7234 26.9663 17.2803 26.9972C17.2183 25.3994 16.6834 24.111 15.6758 23.132C14.602 22.0782 13.0182 21.514 10.9244 21.4395ZM13.4503 27.0603C13.4245 26.0995 13.2161 25.3755 12.8249 24.8882C12.4062 24.3667 11.7942 24.0686 10.9888 23.9941L10.0224 23.9302C9.9687 23.9302 9.92569 23.9463 9.89354 23.9782C9.87211 24.0101 9.86124 24.0686 9.86124 24.1538V26.9234C10.3874 26.9544 10.9465 26.9731 11.7216 26.9991C12.2008 27.0152 12.7627 27.0341 13.4503 27.0603ZM9.86124 28.6615V30.5243C9.86124 30.6201 9.87747 30.6839 9.90961 30.7159C9.94176 30.7478 10.0008 30.7638 10.0867 30.7638H10.1995C11.2625 30.7638 12.0679 30.4924 12.6156 29.9495C12.9099 29.6577 13.1266 29.2713 13.2658 28.7902C12.6706 28.7678 12.1656 28.7507 11.7237 28.7357L11.708 28.7351L11.7054 28.735C10.9499 28.7094 10.3799 28.69 9.86124 28.6615ZM34.8973 26.0538C35.2731 26.0538 35.5737 25.9526 35.7992 25.7504C36.0247 25.5481 36.1373 25.2874 36.1373 24.9681C36.1373 24.6274 36.0086 24.3507 35.7508 24.1378C35.4932 23.9249 35.171 23.8185 34.7844 23.8185H33.4637C33.3241 23.8185 33.2275 23.8451 33.1737 23.8983C33.1202 23.9409 33.0932 24.0208 33.0932 24.1378V25.7025C33.0932 25.8302 33.1146 25.9208 33.1577 25.9739C33.2007 26.0271 33.2705 26.0538 33.3671 26.0538H34.8973ZM34.8166 30.8756C35.2568 30.8756 35.6005 30.7531 35.8474 30.5084C36.1052 30.2635 36.2341 29.9761 36.2341 29.6462C36.2341 29.3162 36.1106 29.0448 35.8636 28.8319C35.6166 28.619 35.2945 28.5125 34.8973 28.5125H33.4637C33.3241 28.5125 33.2275 28.5392 33.1737 28.5924C33.1202 28.6456 33.0932 28.7308 33.0932 28.8478V30.5243C33.0932 30.6521 33.1146 30.7425 33.1577 30.7957C33.2007 30.849 33.2705 30.8756 33.3671 30.8756H34.8166Z" fill="white"/>
<path fill-rule="evenodd" clip-rule="evenodd" d="M10.9244 21.4395C10.613 21.4289 9.81838 21.4236 8.54063 21.4236H6.64C6.47896 21.4236 6.36613 21.4555 6.30169 21.5194C6.23724 21.5726 6.2051 21.6737 6.2051 21.8227V26.503C5.53708 26.4068 4.73579 26.2884 3.74667 26.1415C3.26859 26.0706 2.82282 26.3972 2.75123 26.8712C2.67963 27.3451 3.00918 27.7869 3.48726 27.8579C4.59699 28.0226 5.47783 28.1529 6.2051 28.2567V32.7915C6.2051 32.9618 6.24276 33.0842 6.31792 33.1587C6.39308 33.2332 6.5111 33.2705 6.67214 33.2705H10.9083C12.2826 33.2705 13.4477 33.0203 14.4034 32.52C15.3591 32.0092 16.0784 31.3066 16.5617 30.4125C16.8375 29.9021 17.0347 29.3465 17.1531 28.7459C17.637 28.7113 18.1298 28.6787 18.6311 28.6477V32.8713C18.6311 33.0097 18.6633 33.1109 18.7277 33.1747C18.7922 33.2386 18.905 33.2705 19.066 33.2705H27.683C27.8119 33.2705 27.9085 33.2386 27.973 33.1747C28.0374 33.1109 28.0695 33.0257 28.0695 32.9192V30.9554C28.0695 30.7531 27.9515 30.6521 27.7153 30.6521H22.4806C22.4055 30.6521 22.3517 30.6361 22.3196 30.6041C22.298 30.5722 22.2873 30.5137 22.2873 30.4285V28.8319C22.2873 28.768 22.3089 28.7148 22.3517 28.6723C22.4055 28.6296 22.4699 28.6084 22.5451 28.6084H25.5248C25.7181 28.6084 25.8147 28.5179 25.8147 28.3369V28.3099C27.0071 28.2655 28.2176 28.2235 29.4371 28.1819V32.9192C29.4371 33.015 29.4692 33.1002 29.5337 33.1747C29.6088 33.2386 29.7001 33.2705 29.8075 33.2705H34.8973C36.6367 33.2705 37.9252 33.0097 38.7628 32.4882C39.611 31.9559 40.0352 31.1417 40.0352 30.0453C40.0352 29.3534 39.8527 28.7893 39.4876 28.3529C39.3337 28.1689 39.1349 27.9953 38.8912 27.8321C40.4639 27.7932 42.2282 27.8102 44.0253 27.8372V32.9511C44.0253 33.164 44.1219 33.2705 44.3152 33.2705H47.3754C47.472 33.2705 47.5472 33.2439 47.6009 33.1907C47.6546 33.1268 47.6814 33.0364 47.6814 32.9192V27.8913C49.0809 27.906 50.4238 27.9061 51.6156 27.8672C52.0988 27.8514 52.4776 27.4503 52.4616 26.9713C52.4457 26.4923 52.0411 26.1168 51.5578 26.1327C50.3918 26.1707 49.0726 26.1704 47.6814 26.1557V24.1538C47.6814 24.0474 47.7459 23.9941 47.8748 23.9941H50.7255C50.9619 23.9941 51.0799 23.893 51.0799 23.6908V21.7908C51.0799 21.6844 51.0424 21.5992 50.9673 21.5353C50.9028 21.4608 50.8061 21.4236 50.6773 21.4236H41.0456C40.9167 21.4236 40.8146 21.4608 40.7394 21.5353C40.6751 21.5992 40.6428 21.6844 40.6428 21.7908V23.6908C40.6428 23.893 40.7664 23.9941 41.0133 23.9941H43.848C43.9662 23.9941 44.0253 24.0686 44.0253 24.2177V26.1016C42.3657 26.0767 40.7068 26.06 39.1917 26.0896C39.2224 26.0565 39.2511 26.0232 39.2782 25.9899C39.5896 25.5961 39.7453 25.1171 39.7453 24.5529C39.7453 23.5205 39.3104 22.7435 38.4406 22.2219C37.5816 21.6897 36.3146 21.4236 34.6395 21.4236H29.8397C29.7216 21.4236 29.6249 21.4661 29.5497 21.5513C29.4746 21.6259 29.4371 21.7216 29.4371 21.8387V26.4451C28.2202 26.4868 27.0093 26.5287 25.8147 26.5733V26.3571C25.8147 26.1443 25.7019 26.0378 25.4764 26.0378H22.5772C22.4913 26.0378 22.4215 26.0112 22.3678 25.958C22.3142 25.8941 22.2873 25.809 22.2873 25.7025V24.3454C22.2873 24.1431 22.4108 24.042 22.6577 24.042H27.4898C27.7689 24.042 27.9085 23.8983 27.9085 23.611L27.9246 21.7589C27.9246 21.5353 27.828 21.4236 27.6346 21.4236H18.9371C18.7331 21.4236 18.6311 21.546 18.6311 21.7908V26.9091C18.174 26.9371 17.7234 26.9663 17.2803 26.9972C17.2183 25.3994 16.6834 24.111 15.6758 23.132C14.602 22.0782 13.0182 21.514 10.9244 21.4395ZM13.4503 27.0603C13.4245 26.0995 13.2161 25.3755 12.8249 24.8882C12.4062 24.3667 11.7942 24.0686 10.9888 23.9941L10.0224 23.9302C9.9687 23.9302 9.92569 23.9463 9.89354 23.9782C9.87211 24.0101 9.86124 24.0686 9.86124 24.1538V26.9234C10.3874 26.9544 10.9465 26.9731 11.7216 26.9991C12.2008 27.0152 12.7627 27.0341 13.4503 27.0603ZM9.86124 28.6615V30.5243C9.86124 30.6201 9.87747 30.6839 9.90961 30.7159C9.94176 30.7478 10.0008 30.7638 10.0867 30.7638H10.1995C11.2625 30.7638 12.0679 30.4924 12.6156 29.9495C12.9099 29.6577 13.1266 29.2713 13.2658 28.7902C12.6706 28.7678 12.1656 28.7507 11.7237 28.7357L11.708 28.7351L11.7054 28.735C10.9499 28.7094 10.3799 28.69 9.86124 28.6615ZM34.8973 26.0538C35.2731 26.0538 35.5737 25.9526 35.7992 25.7504C36.0247 25.5481 36.1373 25.2874 36.1373 24.9681C36.1373 24.6274 36.0086 24.3507 35.7508 24.1378C35.4932 23.9249 35.171 23.8185 34.7844 23.8185H33.4637C33.3241 23.8185 33.2275 23.8451 33.1737 23.8983C33.1202 23.9409 33.0932 24.0208 33.0932 24.1378V25.7025C33.0932 25.8302 33.1146 25.9208 33.1577 25.9739C33.2007 26.0271 33.2705 26.0538 33.3671 26.0538H34.8973ZM34.8166 30.8756C35.2568 30.8756 35.6005 30.7531 35.8474 30.5084C36.1052 30.2635 36.2341 29.9761 36.2341 29.6462C36.2341 29.3162 36.1106 29.0448 35.8636 28.8319C35.6166 28.619 35.2945 28.5125 34.8973 28.5125H33.4637C33.3241 28.5125 33.2275 28.5392 33.1737 28.5924C33.1202 28.6456 33.0932 28.7308 33.0932 28.8478V30.5243C33.0932 30.6521 33.1146 30.7425 33.1577 30.7957C33.2007 30.849 33.2705 30.8756 33.3671 30.8756H34.8166Z" fill="white"/>
</svg>
