<svg width="150" height="48" viewBox="0 0 150 48" fill="none" xmlns="http://www.w3.org/2000/svg">
<path d="M60.9749 19.5186C61.7706 19.5186 62.4896 19.6605 63.132 19.9443C63.7743 20.2187 64.3016 20.6019 64.7139 21.0939C65.1261 21.5859 65.3946 22.1488 65.5192 22.7827C65.548 22.8963 65.5624 22.9862 65.5624 23.0524C65.5624 23.1376 65.5432 23.1943 65.5048 23.2227C65.4761 23.2511 65.4186 23.27 65.3323 23.2795L62.8156 23.4356C62.7197 23.4356 62.6574 23.4214 62.6287 23.393C62.5999 23.3552 62.5711 23.2795 62.5424 23.1659C62.4561 22.7118 62.2979 22.357 62.0678 22.1015C61.8377 21.8366 61.5022 21.7041 61.0611 21.7041C60.4955 21.7041 60.0593 21.9501 59.7525 22.4421C59.4457 22.9341 59.2923 23.7336 59.2923 24.8406C59.2923 25.9854 59.4313 26.7991 59.7093 27.2817C59.997 27.7642 60.4428 28.0055 61.0468 28.0055C61.5549 28.0055 61.9863 27.8777 62.341 27.6223C62.7054 27.3668 63.0074 26.941 63.247 26.345C63.2758 26.2598 63.3573 26.2172 63.4915 26.2172C63.5586 26.2172 63.6114 26.222 63.6497 26.2314L65.4473 26.5862C65.5911 26.6336 65.663 26.7424 65.663 26.9127C65.663 27.1776 65.4953 27.5892 65.1597 28.1474C64.8337 28.6961 64.316 29.1976 63.6066 29.6517C62.9067 30.1059 62.0199 30.333 60.9461 30.333C59.9298 30.333 59.0382 30.0964 58.2712 29.6234C57.5043 29.1408 56.9098 28.4833 56.488 27.6507C56.0758 26.8086 55.8696 25.853 55.8696 24.7838C55.8696 23.7242 56.0758 22.7969 56.488 22.0022C56.9098 21.2074 57.5043 20.5972 58.2712 20.1714C59.0478 19.7362 59.949 19.5186 60.9749 19.5186Z" fill="white"/>
<path d="M71.6643 30.333C70.6192 30.333 69.7037 30.1154 68.9175 29.6801C68.1409 29.2354 67.5417 28.611 67.1199 27.8068C66.6981 26.9931 66.4871 26.0422 66.4871 24.9541C66.4871 23.8661 66.6981 22.9152 67.1199 22.1015C67.5513 21.2784 68.1553 20.6445 68.9319 20.1998C69.718 19.7456 70.6288 19.5186 71.6643 19.5186C72.6901 19.5186 73.5913 19.7456 74.3679 20.1998C75.1444 20.6445 75.7437 21.2784 76.1655 22.1015C76.5969 22.9152 76.8126 23.8661 76.8126 24.9541C76.8126 26.0327 76.6017 26.9789 76.1799 27.7926C75.758 28.6063 75.1588 29.2354 74.3823 29.6801C73.6057 30.1154 72.6997 30.333 71.6643 30.333ZM71.6643 28.119C72.0861 28.119 72.4217 28.0197 72.6709 27.821C72.9202 27.6128 73.1024 27.2817 73.2174 26.8275C73.3324 26.3734 73.39 25.7631 73.39 24.9967C73.39 23.8235 73.2558 22.9814 72.9873 22.4705C72.7189 21.9596 72.2778 21.7041 71.6643 21.7041C71.0411 21.7041 70.5905 21.9596 70.3125 22.4705C70.044 22.9814 69.9098 23.8235 69.9098 24.9967C69.9098 25.7631 69.9673 26.3734 70.0824 26.8275C70.1974 27.2817 70.3796 27.6128 70.6288 27.821C70.8877 28.0197 71.2328 28.119 71.6643 28.119Z" fill="white"/>
<path d="M78.0102 19.9869C78.0102 19.8828 78.0342 19.8024 78.0821 19.7456C78.13 19.6889 78.1971 19.6605 78.2834 19.6605H81.0158C81.1884 19.6605 81.2747 19.7598 81.2747 19.9585V27.6648C81.2747 27.7405 81.2842 27.7926 81.3034 27.821C81.3322 27.8493 81.3801 27.8635 81.4472 27.8635H85.7759C85.9964 27.8635 86.1066 27.9534 86.1066 28.1332V29.8788C86.1066 29.9734 86.0731 30.0491 86.006 30.1059C85.9485 30.1627 85.8622 30.191 85.7471 30.191H78.3985C78.2547 30.191 78.154 30.1627 78.0965 30.1059C78.0389 30.0491 78.0102 29.9592 78.0102 29.8362V19.9869Z" fill="white"/>
<path d="M87.251 19.9869C87.251 19.8828 87.275 19.8024 87.323 19.7456C87.3709 19.6889 87.438 19.6605 87.5243 19.6605H90.2567C90.4292 19.6605 90.5155 19.7598 90.5155 19.9585V27.6648C90.5155 27.7405 90.5251 27.7926 90.5443 27.821C90.573 27.8493 90.621 27.8635 90.6881 27.8635H95.0167C95.2373 27.8635 95.3475 27.9534 95.3475 28.1332V29.8788C95.3475 29.9734 95.3139 30.0491 95.2468 30.1059C95.1893 30.1627 95.103 30.191 94.988 30.191H87.6393C87.4955 30.191 87.3949 30.1627 87.3373 30.1059C87.2798 30.0491 87.251 29.9592 87.251 29.8362V19.9869Z" fill="white"/>
<path d="M96.4919 19.9869C96.4919 19.7693 96.583 19.6605 96.7651 19.6605H104.531C104.703 19.6605 104.79 19.7598 104.79 19.9585L104.775 21.6048C104.775 21.8603 104.651 21.988 104.401 21.988H100.087C99.8666 21.988 99.7564 22.0779 99.7564 22.2576V23.464C99.7564 23.5586 99.7803 23.6343 99.8283 23.691C99.8762 23.7384 99.9385 23.762 100.015 23.762H102.604C102.805 23.762 102.906 23.8566 102.906 24.0458V25.8057C102.906 25.9665 102.82 26.0469 102.647 26.0469H99.9865C99.9194 26.0469 99.8618 26.0659 99.8139 26.1037C99.7756 26.1416 99.7564 26.1889 99.7564 26.2456V27.6648C99.7564 27.7405 99.766 27.7926 99.7851 27.821C99.8139 27.8493 99.8618 27.8635 99.929 27.8635H104.603C104.814 27.8635 104.919 27.9534 104.919 28.1332V29.8788C104.919 29.9734 104.89 30.0491 104.833 30.1059C104.775 30.1627 104.689 30.191 104.574 30.191H96.8802C96.7364 30.191 96.6357 30.1627 96.5782 30.1059C96.5207 30.0491 96.4919 29.9592 96.4919 29.8362V19.9869Z" fill="white"/>
<path d="M110.072 19.5186C110.868 19.5186 111.587 19.6605 112.229 19.9443C112.872 20.2187 113.399 20.6019 113.811 21.0939C114.224 21.5859 114.492 22.1488 114.617 22.7827C114.645 22.8963 114.66 22.9862 114.66 23.0524C114.66 23.1376 114.641 23.1943 114.602 23.2227C114.573 23.2511 114.516 23.27 114.43 23.2795L111.913 23.4356C111.817 23.4356 111.755 23.4214 111.726 23.393C111.697 23.3552 111.669 23.2795 111.64 23.1659C111.553 22.7118 111.395 22.357 111.165 22.1015C110.935 21.8366 110.6 21.7041 110.159 21.7041C109.593 21.7041 109.157 21.9501 108.85 22.4421C108.543 22.9341 108.39 23.7336 108.39 24.8406C108.39 25.9854 108.529 26.7991 108.807 27.2817C109.094 27.7642 109.54 28.0055 110.144 28.0055C110.652 28.0055 111.084 27.8777 111.438 27.6223C111.803 27.3668 112.105 26.941 112.344 26.345C112.373 26.2598 112.455 26.2172 112.589 26.2172C112.656 26.2172 112.709 26.222 112.747 26.2314L114.545 26.5862C114.688 26.6336 114.76 26.7424 114.76 26.9127C114.76 27.1776 114.593 27.5892 114.257 28.1474C113.931 28.6961 113.413 29.1976 112.704 29.6517C112.004 30.1059 111.117 30.333 110.043 30.333C109.027 30.333 108.136 30.0964 107.369 29.6234C106.602 29.1408 106.007 28.4833 105.585 27.6507C105.173 26.8086 104.967 25.853 104.967 24.7838C104.967 23.7242 105.173 22.7969 105.585 22.0022C106.007 21.2074 106.602 20.5972 107.369 20.1714C108.145 19.7362 109.046 19.5186 110.072 19.5186Z" fill="white"/>
<path d="M115.541 19.9869C115.541 19.8923 115.57 19.8166 115.628 19.7598C115.695 19.6936 115.786 19.6605 115.901 19.6605H124.501C124.616 19.6605 124.702 19.6936 124.76 19.7598C124.827 19.8166 124.86 19.8923 124.86 19.9869V21.6758C124.86 21.8555 124.755 21.9454 124.544 21.9454H121.998C121.883 21.9454 121.826 21.9927 121.826 22.0873V29.8788C121.826 29.9829 121.802 30.0633 121.754 30.1201C121.706 30.1674 121.639 30.191 121.553 30.191H118.82C118.648 30.191 118.561 30.0964 118.561 29.9072V22.1441C118.561 22.0116 118.509 21.9454 118.403 21.9454H115.872C115.652 21.9454 115.541 21.8555 115.541 21.6758V19.9869Z" fill="white"/>
<path d="M129.018 19.6605C129.19 19.6605 129.277 19.7598 129.277 19.9585V29.7795C129.277 29.9309 129.238 30.0397 129.162 30.1059C129.085 30.1627 128.965 30.191 128.802 30.191H126.4C126.257 30.191 126.156 30.1627 126.098 30.1059C126.041 30.0491 126.012 29.9592 126.012 29.8362V19.9869C126.012 19.8828 126.036 19.8024 126.084 19.7456C126.132 19.6889 126.199 19.6605 126.285 19.6605H129.018Z" fill="white"/>
<path d="M140.193 19.6605C140.279 19.6605 140.346 19.6889 140.394 19.7456C140.451 19.7929 140.48 19.8592 140.48 19.9443C140.48 20.0011 140.475 20.0437 140.466 20.072L137.129 29.8362C137.062 30.0728 136.885 30.191 136.597 30.191H134.268C133.98 30.191 133.803 30.0728 133.735 29.8362L130.399 20.072C130.38 20.0153 130.37 19.9727 130.37 19.9443C130.37 19.8592 130.399 19.7929 130.457 19.7456C130.514 19.6889 130.586 19.6605 130.672 19.6605H133.448C133.63 19.6605 133.75 19.7598 133.807 19.9585L135.734 26.1889C135.754 26.2551 135.778 26.2882 135.806 26.2882C135.826 26.2882 135.849 26.2504 135.878 26.1747L137.676 19.9585C137.695 19.8639 137.738 19.7929 137.805 19.7456C137.882 19.6889 137.963 19.6605 138.05 19.6605H140.193Z" fill="white"/>
<path d="M141.573 19.9869C141.573 19.7693 141.664 19.6605 141.846 19.6605H149.612C149.784 19.6605 149.871 19.7598 149.871 19.9585L149.856 21.6048C149.856 21.8603 149.732 21.988 149.482 21.988H145.168C144.947 21.988 144.837 22.0779 144.837 22.2576V23.464C144.837 23.5586 144.861 23.6343 144.909 23.691C144.957 23.7384 145.019 23.762 145.096 23.762H147.685C147.886 23.762 147.987 23.8566 147.987 24.0458V25.8057C147.987 25.9665 147.9 26.0469 147.728 26.0469H145.067C145 26.0469 144.943 26.0659 144.895 26.1037C144.856 26.1416 144.837 26.1889 144.837 26.2456V27.6648C144.837 27.7405 144.847 27.7926 144.866 27.821C144.895 27.8493 144.943 27.8635 145.01 27.8635H149.684C149.895 27.8635 150 27.9534 150 28.1332V29.8788C150 29.9734 149.971 30.0491 149.914 30.1059C149.856 30.1627 149.77 30.191 149.655 30.191H141.961C141.817 30.191 141.717 30.1627 141.659 30.1059C141.602 30.0491 141.573 29.9592 141.573 29.8362V19.9869Z" fill="white"/>
<path d="M11.4507 22.1228C11.8 22.556 11.9861 23.1995 12.0091 24.0536C11.3951 24.0303 10.8935 24.0135 10.4656 23.9992C9.77352 23.9761 9.27433 23.9594 8.80457 23.9319V21.47C8.80457 21.3943 8.81428 21.3423 8.83341 21.3139C8.86211 21.2855 8.90052 21.2713 8.9485 21.2713L9.81135 21.3281C10.5304 21.3943 11.0768 21.6592 11.4507 22.1228Z" fill="#FF4630"/>
<path d="M8.80457 27.1327V25.4769C9.26766 25.5022 9.77656 25.5195 10.4511 25.5422L10.4534 25.5423L10.4675 25.5428L10.4985 25.5439C10.8857 25.557 11.3269 25.5719 11.8443 25.5913C11.7201 26.0189 11.5266 26.3624 11.2638 26.6217C10.7748 27.1043 10.0557 27.3456 9.10663 27.3456H9.0059C8.92922 27.3456 8.87646 27.3314 8.84776 27.303C8.81906 27.2746 8.80457 27.2179 8.80457 27.1327Z" fill="#FF4630"/>
<path d="M31.9635 22.8892C31.7621 23.069 31.4937 23.1589 31.1581 23.1589H29.7919C29.7057 23.1589 29.6433 23.1352 29.6049 23.0879C29.5665 23.0407 29.5474 22.9602 29.5474 22.8467V21.4558C29.5474 21.3518 29.5715 21.2808 29.6193 21.2429C29.6673 21.1956 29.7535 21.172 29.8782 21.172H31.0574C31.4025 21.172 31.6902 21.2666 31.9203 21.4558C32.1504 21.6451 32.2654 21.891 32.2654 22.1939C32.2654 22.4776 32.1648 22.7094 31.9635 22.8892Z" fill="#FF4630"/>
<path d="M32.0065 27.1185C31.786 27.3361 31.4792 27.4449 31.0861 27.4449H29.7919C29.7057 27.4449 29.6433 27.4213 29.6049 27.3739C29.5665 27.3267 29.5474 27.2463 29.5474 27.1327V25.6425C29.5474 25.5384 29.5715 25.4628 29.6193 25.4154C29.6673 25.3681 29.7535 25.3445 29.8782 25.3445H31.1581C31.5128 25.3445 31.8004 25.4391 32.021 25.6283C32.2415 25.8176 32.3518 26.0588 32.3518 26.3521C32.3518 26.6454 32.2367 26.9009 32.0065 27.1185Z" fill="#FF4630"/>
<path fill-rule="evenodd" clip-rule="evenodd" d="M0.114643 15.225C0.00187758 22.2293 -0.110743 29.2242 0.212335 36.2389C0.290749 37.9413 0.268283 39.1838 0.242193 40.63C0.227409 41.4438 0.211465 42.322 0.211755 43.3828C0.211755 43.5655 0.210596 43.7429 0.209436 43.9149C0.198131 45.6392 0.190304 46.8146 1.45798 47.2755C3.3505 47.9635 6.76522 47.8798 8.99097 47.8252C9.19461 47.8201 9.38811 47.8154 9.56973 47.8115C10.6411 47.7885 11.6991 47.731 12.7508 47.6737C15.3775 47.5308 17.966 47.39 20.6316 47.7947C23.3153 48.2021 26.0119 47.924 28.7437 47.6422C30.514 47.4596 32.2991 47.2755 34.1048 47.2755H43.3519C43.8149 47.2755 44.3528 47.3125 44.9238 47.3518C47.5393 47.5316 50.8514 47.7594 50.8514 44.7019C50.8514 42.7523 50.7743 41.0844 50.6974 39.4217C50.621 37.7695 50.5447 36.1224 50.5447 34.2091C50.5447 32.7824 50.6217 31.3433 50.6985 29.9072C50.7751 28.4773 50.8514 27.0505 50.8514 25.6418C50.8514 23.212 50.7603 20.7185 50.6695 18.2344C50.6239 16.9862 50.5784 15.7406 50.5446 14.5065C50.5072 13.1404 50.3747 11.7305 50.2425 10.3218C50.0867 8.66265 49.9311 7.00516 49.9311 5.42328C49.9311 5.20614 49.9648 4.94023 50.004 4.63334C50.1312 3.63312 50.314 2.197 49.5623 0.589578C47.5737 -0.0646177 44.5444 -0.0145535 42.7804 0.0146268C42.4747 0.0197047 42.207 0.024139 41.9893 0.024139C40.5125 0.0240675 38.9657 0.0717 37.2162 0.125555C34.9407 0.195573 32.3223 0.276176 29.0686 0.276176H15.5695C14.3501 0.276176 13.5278 0.25801 12.7924 0.241775C11.533 0.213954 10.5285 0.191783 8.22204 0.276105C7.71445 0.294629 7.1325 0.283114 6.52157 0.270956C4.76529 0.235982 2.76855 0.196288 1.6035 0.853345C0.195812 1.64715 0.207987 2.62547 0.22538 4.01547C0.227409 4.17632 0.229438 4.34275 0.229438 4.51497C0.229438 8.09005 0.172041 11.6588 0.114643 15.225ZM7.62546 19.0432C8.7663 19.0432 9.4758 19.0479 9.7538 19.0573C11.6233 19.1236 13.0373 19.6251 13.9961 20.5618C14.8958 21.4319 15.3734 22.5772 15.4288 23.9975C15.8243 23.9701 16.2267 23.944 16.6348 23.9192V19.3696C16.6348 19.152 16.7259 19.0432 16.9081 19.0432H24.6737C24.8463 19.0432 24.9325 19.1425 24.9325 19.3412L24.9182 20.9875C24.9182 21.2429 24.7935 21.3707 24.5444 21.3707H20.23C20.0096 21.3707 19.8993 21.4606 19.8993 21.6404V22.8467C19.8993 22.9413 19.9233 23.017 19.9711 23.0738C20.0191 23.121 20.0814 23.1447 20.1581 23.1447H22.7467C22.948 23.1447 23.0487 23.2393 23.0487 23.4285V23.6207C24.1154 23.5811 25.1965 23.5438 26.283 23.5068V19.4121C26.283 19.3081 26.3165 19.223 26.3836 19.1567C26.4507 19.081 26.5371 19.0432 26.6424 19.0432H30.928C32.4236 19.0432 33.5549 19.2797 34.3218 19.7528C35.0984 20.2164 35.4867 20.9071 35.4867 21.8248C35.4867 22.3263 35.3477 22.7521 35.0697 23.1021C35.0455 23.1317 35.0199 23.1613 34.9925 23.1908C36.3452 23.1645 37.8264 23.1793 39.3082 23.2014V21.5268C39.3082 21.3943 39.2554 21.3281 39.1499 21.3281H36.6189C36.3984 21.3281 36.2881 21.2382 36.2881 21.0585V19.3696C36.2881 19.275 36.317 19.1993 36.3744 19.1425C36.4415 19.0763 36.5326 19.0432 36.6477 19.0432H45.2475C45.3624 19.0432 45.4488 19.0763 45.5064 19.1425C45.5735 19.1993 45.607 19.275 45.607 19.3696V21.0585C45.607 21.2382 45.5016 21.3281 45.2906 21.3281H42.7452C42.6301 21.3281 42.5726 21.3754 42.5726 21.47V23.2495C43.8147 23.2626 44.9925 23.2629 46.0337 23.229C46.4652 23.215 46.8264 23.5487 46.8406 23.9745C46.8549 24.4003 46.5166 24.7568 46.0853 24.7708C45.0211 24.8054 43.8221 24.8053 42.5726 24.7923V29.2615C42.5726 29.3656 42.5487 29.446 42.5007 29.5028C42.4527 29.5501 42.3856 29.5737 42.2994 29.5737H39.567C39.3944 29.5737 39.3082 29.4791 39.3082 29.2899V24.7442C37.7036 24.7202 36.1284 24.705 34.7242 24.7396C34.9417 24.8847 35.1193 25.039 35.2567 25.2026C35.5827 25.5905 35.7456 26.0919 35.7456 26.7069C35.7456 27.6815 35.3669 28.4053 34.6095 28.8784C33.8616 29.342 32.7112 29.5737 31.1581 29.5737H26.6137C26.5178 29.5737 26.4363 29.5454 26.3692 29.4886C26.3117 29.4223 26.283 29.3467 26.283 29.2615V25.0505C25.1942 25.0876 24.1133 25.1248 23.0487 25.1644V25.1883C23.0487 25.3492 22.9625 25.4296 22.7899 25.4296H20.1294C20.0623 25.4296 20.0048 25.4485 19.9568 25.4864C19.9185 25.5243 19.8993 25.5715 19.8993 25.6283V27.0475C19.8993 27.1232 19.9088 27.1752 19.9281 27.2036C19.9568 27.232 20.0048 27.2463 20.0719 27.2463H24.7457C24.9566 27.2463 25.062 27.3361 25.062 27.5159V29.2615C25.062 29.3561 25.0333 29.4319 24.9757 29.4886C24.9182 29.5454 24.832 29.5737 24.7169 29.5737H17.0231C16.8794 29.5737 16.7786 29.5454 16.7211 29.4886C16.6635 29.4319 16.6348 29.342 16.6348 29.2189V25.4646C16.1873 25.4922 15.7472 25.5211 15.3151 25.5519C15.2095 26.0858 15.0334 26.5796 14.7871 27.0333C14.3556 27.8281 13.7134 28.4526 12.8601 28.9067C12.0068 29.3514 10.9665 29.5737 9.73945 29.5737H5.95716C5.81338 29.5737 5.708 29.5406 5.64089 29.4744C5.57379 29.4082 5.54016 29.2994 5.54016 29.148V25.117C4.89081 25.0248 4.10435 24.909 3.11352 24.7626C2.68666 24.6994 2.39243 24.3068 2.45635 23.8855C2.52027 23.4642 2.91828 23.1738 3.34514 23.2369C4.22828 23.3674 4.94372 23.4727 5.54016 23.5582V19.398C5.54016 19.2655 5.56886 19.1756 5.6264 19.1284C5.68394 19.0716 5.78468 19.0432 5.92846 19.0432H7.62546Z" fill="#FF4630"/>
</svg>
